<?xml version="1.0" encoding="UTF-8" standalone="no"?>
<svg xmlns="http://www.w3.org/2000/svg" version="1.1" viewBox="0.00 0.00 1024.00 1024.00">
  <path fill="#0cbc8d" d="   M 317.87 242.49   A 1.22 1.22 0.0 0 0 319.03 242.38   C 333.27 232.83 347.18 224.08 361.58 216.77   C 474.82 159.22 613.56 171.48 714.58 249.72   Q 754.70 280.78 783.76 322.19   Q 828.20 385.49 840.07 464.08   Q 844.08 490.68 843.18 521.87   Q 842.31 551.71 836.61 579.33   C 805.78 728.64 675.46 839.15 522.25 843.14   Q 430.30 845.54 350.77 801.44   C 285.58 765.30 232.65 705.58 204.88 636.41   Q 183.25 582.52 181.20 527.48   Q 180.89 518.98 180.82 481.00   Q 180.60 355.65 180.87 227.25   Q 180.88 225.99 181.13 214.47   Q 181.27 208.20 183.69 202.71   Q 191.82 184.24 212.41 181.12   C 224.06 179.36 233.90 184.30 243.38 190.16   C 267.26 204.94 291.50 222.99 316.08 241.50   Q 316.73 241.99 317.87 242.49   Z   M 466.58 523.53   Q 415.38 472.60 414.20 471.38   Q 405.26 462.10 399.34 458.48   C 381.40 447.53 361.65 445.95 341.55 452.56   C 331.12 455.99 322.11 463.58 314.59 471.97   Q 309.75 477.38 306.41 485.08   C 295.56 510.07 298.78 535.95 316.63 556.23   Q 318.59 558.45 322.07 561.98   Q 356.78 597.13 422.44 662.23   C 436.29 675.96 456.28 683.04 475.63 680.13   Q 488.67 678.16 500.39 671.88   Q 504.13 669.87 506.19 667.94   Q 515.65 659.11 537.40 637.40   C 567.55 607.32 581.54 593.03 607.60 567.61   Q 634.17 541.69 663.82 511.07   Q 672.91 501.67 698.97 476.44   Q 707.60 468.09 710.18 464.74   Q 715.76 457.49 718.77 451.01   C 725.23 437.09 725.88 420.69 722.24 405.97   C 717.13 385.32 696.43 365.49 675.69 361.08   C 661.02 357.96 643.47 358.72 629.79 366.55   C 625.62 368.93 620.28 372.07 617.11 375.11   Q 608.73 383.14 599.79 392.04   Q 539.06 452.56 468.10 523.53   A 1.07 1.07 0.0 0 1 466.58 523.53   Z"></path>
</svg>
