<?xml version="1.0" encoding="UTF-8" standalone="no"?>
<svg xmlns="http://www.w3.org/2000/svg" version="1.1" viewBox="0.00 0.00 1869.00 1683.00">
  <g stroke-width="2.00" fill="none" stroke-linecap="butt">
    <path stroke="#2a7def" vector-effect="non-scaling-stroke" d="   M 1067.55 18.03   L 843.18 284.53   A 4.44 4.37 0.5 0 1 842.56 285.13   Q 839.06 287.91 838.88 290.87"></path>
    <path stroke="#7f5b8e" vector-effect="non-scaling-stroke" d="   M 828.06 297.16   L 644.20 142.35"></path>
    <path stroke="#3998a3" vector-effect="non-scaling-stroke" d="   M 1300.37 214.22   Q 1299.74 214.35 1299.52 214.70"></path>
    <path stroke="#5075ae" vector-effect="non-scaling-stroke" d="   M 1299.52 214.70   Q 1299.28 214.79 1299.21 215.00"></path>
    <path stroke="#5075ae" vector-effect="non-scaling-stroke" d="   M 1267.62 252.52   Q 1267.27 252.64 1266.95 253.19"></path>
    <path stroke="#5075ae" vector-effect="non-scaling-stroke" d="   M 1259.45 262.04   Q 1259.30 261.98 1259.20 262.26"></path>
    <path stroke="#5075ae" vector-effect="non-scaling-stroke" d="   M 1254.66 267.75   Q 1254.16 267.95 1254.12 268.49"></path>
    <path stroke="#3998a3" vector-effect="non-scaling-stroke" d="   M 1250.70 272.59   Q 1250.37 272.19 1250.51 272.74"></path>
    <path stroke="#3998a3" vector-effect="non-scaling-stroke" d="   M 1246.44 277.67   Q 1246.00 277.95 1245.50 278.63"></path>
    <path stroke="#5075ae" vector-effect="non-scaling-stroke" d="   M 1245.50 278.63   L 1244.54 279.98"></path>
    <path stroke="#3998a3" vector-effect="non-scaling-stroke" d="   M 1241.72 283.34   Q 1241.65 283.13 1241.50 283.45"></path>
    <path stroke="#5075ae" vector-effect="non-scaling-stroke" d="   M 1241.50 283.45   Q 1241.01 283.93 1240.78 284.50"></path>
    <path stroke="#5075ae" vector-effect="non-scaling-stroke" d="   M 1236.67 289.25   L 1235.01 291.21"></path>
    <path stroke="#5075ae" vector-effect="non-scaling-stroke" d="   M 1234.52 291.79   L 1223.08 305.58"></path>
    <path stroke="#3998a3" vector-effect="non-scaling-stroke" d="   M 1223.08 305.58   L 1213.64 316.78"></path>
    <path stroke="#5075ae" vector-effect="non-scaling-stroke" d="   M 1213.64 316.78   L 1210.08 320.98"></path>
    <path stroke="#3998a3" vector-effect="non-scaling-stroke" d="   M 1209.16 322.00   L 1197.58 335.90"></path>
    <path stroke="#3998a3" vector-effect="non-scaling-stroke" d="   M 1195.72 338.03   L 1183.62 352.42"></path>
    <path stroke="#3998a3" vector-effect="non-scaling-stroke" d="   M 1182.70 353.51   Q 1127.58 419.23 1072.50 484.99   Q 1071.98 485.61 1071.66 484.80"></path>
    <path stroke="#f37f19" vector-effect="non-scaling-stroke" d="   M 819.01 314.88   L 590.30 585.70"></path>
    <path stroke="#96b429" vector-effect="non-scaling-stroke" d="   M 770.28 843.02   Q 770.65 842.85 770.83 842.52"></path>
    <path stroke="#96b429" vector-effect="non-scaling-stroke" d="   M 1048.86 512.65   L 1056.22 503.46"></path>
    <path stroke="#48875d" vector-effect="non-scaling-stroke" d="   M 1210.27 321.03   Q 1212.46 319.17 1213.64 316.78"></path>
    <path stroke="#48875d" vector-effect="non-scaling-stroke" d="   M 1223.08 305.58   L 1234.94 291.72"></path>
    <path stroke="#48875d" vector-effect="non-scaling-stroke" d="   M 1235.25 291.26   Q 1236.55 290.48 1237.21 289.00"></path>
    <path stroke="#48875d" vector-effect="non-scaling-stroke" d="   M 1239.63 286.25   L 1240.68 285.02"></path>
    <path stroke="#48875d" vector-effect="non-scaling-stroke" d="   M 1241.00 284.48   Q 1242.35 283.92 1241.50 283.45"></path>
    <path stroke="#48875d" vector-effect="non-scaling-stroke" d="   M 1244.98 279.78   Q 1246.96 278.35 1245.50 278.63"></path>
    <path stroke="#48875d" vector-effect="non-scaling-stroke" d="   M 1254.30 268.69   Q 1254.89 268.23 1255.24 267.55"></path>
    <path stroke="#48875d" vector-effect="non-scaling-stroke" d="   M 1259.42 262.51   L 1260.79 261.04"></path>
    <path stroke="#48875d" vector-effect="non-scaling-stroke" d="   M 1264.17 257.01   Q 1264.35 256.66 1264.75 256.30"></path>
    <path stroke="#48875d" vector-effect="non-scaling-stroke" d="   M 1276.36 242.48   Q 1276.86 242.22 1276.96 241.77"></path>
    <path stroke="#48875d" vector-effect="non-scaling-stroke" d="   M 1281.38 236.50   L 1281.98 235.79"></path>
    <path stroke="#48875d" vector-effect="non-scaling-stroke" d="   M 1299.30 215.22   Q 1299.97 214.94 1299.52 214.70"></path>
  </g>
  <path fill="#1374e9" d="   M 959.72 0.00   Q 1010.78 1.89 1059.78 15.79   Q 1063.47 16.83 1067.55 18.03   L 843.18 284.53   A 4.44 4.37 0.5 0 1 842.56 285.13   Q 839.06 287.91 838.88 290.87   L 831.98 298.02   A 1.04 1.04 0.0 0 1 830.86 298.26   L 828.06 297.16   L 644.20 142.35   Q 645.66 139.63 647.74 137.24   Q 701.68 75.35 773.16 40.16   Q 842.84 5.84 920.52 0.92   Q 927.08 0.50 933.64 0.00   L 959.72 0.00   Z"></path>
  <path fill="#4086f4" d="   M 1300.37 214.22   Q 1299.74 214.35 1299.52 214.70   Q 1299.28 214.79 1299.21 215.00   L 1267.62 252.52   Q 1267.27 252.64 1266.95 253.19   L 1259.45 262.04   Q 1259.30 261.98 1259.20 262.26   L 1254.66 267.75   Q 1254.16 267.95 1254.12 268.49   L 1250.70 272.59   Q 1250.37 272.19 1250.51 272.74   L 1246.44 277.67   Q 1246.00 277.95 1245.50 278.63   L 1244.54 279.98   L 1241.72 283.34   Q 1241.65 283.13 1241.50 283.45   Q 1241.01 283.93 1240.78 284.50   L 1236.67 289.25   L 1235.01 291.21   Q 1234.83 291.57 1234.52 291.79   L 1223.08 305.58   L 1213.64 316.78   L 1210.08 320.98   L 1209.16 322.00   L 1197.58 335.90   L 1195.72 338.03   L 1183.62 352.42   L 1182.70 353.51   Q 1127.58 419.23 1072.50 484.99   Q 1071.98 485.61 1071.66 484.80   C 1095.16 448.97 1104.78 406.70 1095.83 364.71   C 1080.24 291.53 1010.04 239.33 935.38 245.68   C 899.03 248.77 865.25 265.30 838.88 290.87   Q 839.06 287.91 842.56 285.13   A 4.44 4.37 0.5 0 0 843.18 284.53   L 1067.55 18.03   Q 1105.00 29.73 1138.03 47.76   Q 1244.34 105.80 1300.37 214.22   Z"></path>
  <path fill="#eb4132" d="   M 644.20 142.35   L 828.06 297.16   L 830.52 299.06   A 1.37 1.37 0.0 0 1 830.73 301.02   L 819.01 314.88   L 590.30 585.70   Q 576.69 555.50 567.61 521.12   Q 550.38 455.87 551.70 389.75   C 553.49 299.81 585.90 211.30 644.20 142.35   Z"></path>
  <path fill="#31aa52" d="   M 1300.37 214.22   Q 1306.03 224.19 1310.63 234.87   Q 1348.85 323.75 1344.29 420.25   Q 1340.88 492.43 1316.47 560.70   Q 1307.34 586.21 1294.08 611.10   C 1237.01 718.21 1151.43 801.70 1080.93 902.92   Q 1053.03 942.98 1031.07 985.05   Q 1023.53 999.50 1016.07 1017.81   C 1005.14 1044.66 998.64 1065.52 986.49 1102.51   C 980.98 1119.29 972.06 1135.24 953.54 1137.54   C 941.18 1139.07 929.24 1136.53 921.52 1126.45   C 914.92 1117.82 910.90 1107.19 907.62 1096.87   C 892.77 1050.24 876.95 1004.04 851.81 961.95   Q 820.75 909.93 783.24 860.23   Q 776.76 851.63 770.28 843.02   Q 770.65 842.85 770.83 842.52   L 1004.23 565.78   L 1031.00 533.96   L 1048.86 512.65   L 1056.22 503.46   Q 1064.67 494.79 1071.66 484.80   Q 1071.98 485.61 1072.50 484.99   Q 1127.58 419.23 1182.70 353.51   Q 1183.73 353.19 1183.62 352.42   L 1195.72 338.03   Q 1197.42 337.12 1197.58 335.90   L 1209.16 322.00   Q 1209.86 321.90 1210.27 321.03   Q 1212.46 319.17 1213.64 316.78   L 1223.08 305.58   L 1234.94 291.72   Q 1235.13 291.68 1235.25 291.26   Q 1236.55 290.48 1237.21 289.00   L 1239.63 286.25   L 1240.68 285.02   Q 1240.94 284.77 1241.00 284.48   Q 1242.35 283.92 1241.50 283.45   Q 1241.65 283.13 1241.72 283.34   L 1244.98 279.78   Q 1246.96 278.35 1245.50 278.63   Q 1246.00 277.95 1246.44 277.67   L 1250.76 273.04   A 0.07 0.07 0.0 0 0 1250.78 272.99   Q 1250.80 272.78 1250.51 272.74   Q 1250.37 272.19 1250.70 272.59   L 1254.30 268.69   Q 1254.89 268.23 1255.24 267.55   L 1259.42 262.51   L 1260.79 261.04   L 1264.17 257.01   Q 1264.35 256.66 1264.75 256.30   L 1276.36 242.48   Q 1276.86 242.22 1276.96 241.77   L 1281.38 236.50   L 1281.98 235.79   L 1299.30 215.22   Q 1299.97 214.94 1299.52 214.70   Q 1299.74 214.35 1300.37 214.22   Z"></path>
  <path fill="#5f6368" d="   M 1299.52 214.70   Q 1299.97 214.94 1299.30 215.22   Q 1299.25 215.11 1299.21 215.00   Q 1299.28 214.79 1299.52 214.70   Z"></path>
  <path fill="#5f6368" d="   M 1281.38 236.50   L 1281.98 235.79   L 1281.38 236.50   Z"></path>
  <path fill="#5f6368" d="   M 1276.36 242.48   L 1276.96 241.77   Q 1276.86 242.22 1276.36 242.48   Z"></path>
  <path fill="#5f6368" d="   M 1267.62 252.52   Q 1267.26 252.59 1266.95 253.19   Q 1267.27 252.64 1267.62 252.52   Z"></path>
  <path fill="#5f6368" d="   M 1264.75 256.30   Q 1264.35 256.66 1264.17 257.01   L 1264.75 256.30   Z"></path>
  <path fill="#5f6368" d="   M 1260.79 261.04   L 1259.42 262.51   Q 1259.31 262.38 1259.20 262.26   Q 1259.30 261.98 1259.45 262.04   Q 1260.07 262.11 1260.79 261.04   Z"></path>
  <path fill="#5f6368" d="   M 1254.30 268.69   Q 1254.32 268.51 1254.12 268.49   Q 1254.16 267.95 1254.66 267.75   Q 1255.00 267.89 1255.24 267.55   Q 1254.89 268.23 1254.30 268.69   Z"></path>
  <path fill="#5f6368" d="   M 1244.98 279.78   Q 1244.72 279.69 1244.54 279.98   L 1245.50 278.63   Q 1246.96 278.35 1244.98 279.78   Z"></path>
  <path fill="#5f6368" d="   M 1241.00 284.48   Q 1240.89 284.49 1240.78 284.50   Q 1241.01 283.93 1241.50 283.45   Q 1242.35 283.92 1241.00 284.48   Z"></path>
  <path fill="#5f6368" d="   M 1239.63 286.25   L 1240.68 285.02   L 1239.63 286.25   Z"></path>
  <path fill="#5f6368" d="   M 1235.25 291.26   Q 1235.13 291.23 1235.01 291.21   L 1236.67 289.25   Q 1236.91 289.32 1237.21 289.00   Q 1236.55 290.48 1235.25 291.26   Z"></path>
  <path fill="#5f6368" d="   M 1234.52 291.79   Q 1234.60 292.32 1234.94 291.72   L 1223.08 305.58   L 1234.52 291.79   Z"></path>
  <path fill="#fbbd00" d="   M 819.01 314.88   Q 810.98 330.23 806.57 341.57   C 784.94 397.20 797.05 459.00 838.38 502.01   C 873.11 538.13 925.08 554.61 973.77 545.90   Q 1010.08 539.40 1039.24 517.48   Q 1047.19 511.51 1056.22 503.46   L 1048.86 512.65   L 1031.00 533.96   L 1004.23 565.78   L 770.83 842.52   Q 770.65 842.85 770.28 843.02   Q 735.63 798.15 699.89 754.11   Q 687.60 738.97 666.26 710.50   Q 642.51 678.83 623.08 647.41   Q 604.79 617.85 590.30 585.70   L 819.01 314.88   Z"></path>
  <path fill="#5f6368" d="   M 1213.64 316.78   Q 1212.46 319.17 1210.27 321.03   Q 1210.17 321.00 1210.08 320.98   L 1213.64 316.78   Z"></path>
  <path fill="#5f6368" d="   M 0.00 1485.76   L 0.00 1459.76   Q 5.88 1410.14 41.50 1376.50   C 70.46 1349.15 108.47 1336.11 148.20 1339.71   C 177.99 1342.41 204.25 1354.83 225.66 1375.48   A 0.60 0.60 0.0 0 1 225.67 1376.33   L 201.15 1400.84   A 0.99 0.98 43.5 0 1 199.79 1400.87   Q 171.00 1374.74 133.19 1375.54   C 85.08 1376.56 46.37 1411.81 40.24 1458.55   C 34.22 1504.51 59.64 1547.94 104.00 1563.20   Q 124.68 1570.31 149.71 1567.20   Q 179.51 1563.49 200.98 1542.48   C 213.60 1530.13 219.68 1513.42 221.70 1496.08   A 0.37 0.36 -86.5 0 0 221.34 1495.67   L 135.34 1495.67   A 0.62 0.61 0.0 0 1 134.72 1495.06   L 134.72 1459.64   A 0.34 0.34 0.0 0 1 135.06 1459.30   L 256.36 1459.30   A 0.76 0.76 0.0 0 1 257.09 1459.85   Q 257.75 1462.00 258.39 1469.22   Q 261.46 1504.20 248.60 1535.32   C 241.03 1553.63 227.54 1569.23 211.85 1580.99   C 189.69 1597.58 163.47 1604.59 135.66 1604.65   A 1.06 1.05 -74.2 0 0 134.76 1605.16   Q 134.73 1605.21 134.70 1605.29   A 0.96 0.95 10.9 0 1 133.79 1605.90   C 64.98 1604.90 8.08 1553.95 0.00 1485.76   Z"></path>
  <rect fill="#5f6368" x="851.58" y="1348.72" width="37.74" height="251.98" rx="0.47"></rect>
  <path fill="#5f6368" d="   M 1186.24 1428.39   A 0.60 0.60 0.0 0 0 1185.24 1428.87   Q 1186.10 1448.11 1186.35 1474.01   Q 1186.88 1529.10 1186.36 1598.41   A 0.47 0.47 0.0 0 1 1185.89 1598.87   L 1158.58 1598.68   A 1.09 1.09 0.0 0 1 1157.50 1597.59   L 1157.50 1375.35   A 0.57 0.56 -90.0 0 1 1158.06 1374.78   L 1185.72 1374.78   A 1.24 1.22 -14.3 0 1 1186.80 1375.41   L 1263.99 1510.79   A 0.95 0.95 0.0 0 0 1265.64 1510.79   L 1343.06 1375.04   A 0.52 0.52 0.0 0 1 1343.51 1374.78   L 1371.58 1374.78   A 0.59 0.59 0.0 0 1 1372.17 1375.37   L 1372.17 1598.29   A 0.51 0.51 0.0 0 1 1371.66 1598.80   L 1344.05 1598.80   A 0.83 0.83 0.0 0 1 1343.22 1597.97   L 1344.40 1428.85   A 0.67 0.67 0.0 0 0 1343.14 1428.51   L 1273.49 1550.64   A 0.88 0.87 14.4 0 1 1272.72 1551.09   L 1257.10 1551.09   A 1.18 1.18 0.0 0 1 1256.07 1550.49   Q 1209.63 1469.04 1187.15 1429.61   Q 1186.68 1428.78 1186.24 1428.39   Z"></path>
  <path fill="#5f6368" d="   M 363.92 1434.29   C 411.99 1434.11 448.67 1471.80 448.86 1519.74   C 449.04 1567.68 412.64 1605.66 364.58 1605.84   C 316.51 1606.03 279.82 1568.33 279.64 1520.39   C 279.45 1472.45 315.85 1434.47 363.92 1434.29   Z   M 364.1491 1468.0101   A 52.06 47.71 -90.1 0 0 316.5301 1520.1533   A 52.06 47.71 -90.1 0 0 364.3309 1572.1299   A 52.06 47.71 -90.1 0 0 411.9499 1519.9867   A 52.06 47.71 -90.1 0 0 364.1491 1468.0101   Z"></path>
  <path fill="#5f6368" d="   M 469.60 1520.39   C 469.42 1472.46 505.81 1434.48 553.88 1434.30   C 601.95 1434.11 638.63 1471.81 638.81 1519.75   C 639.00 1567.68 602.60 1605.66 554.53 1605.84   C 506.47 1606.03 469.78 1568.33 469.60 1520.39   Z   M 554.2000 1468.0000   A 52.06 47.71 -90.0 0 0 506.4900 1520.0600   A 52.06 47.71 -90.0 0 0 554.2000 1572.1200   A 52.06 47.71 -90.0 0 0 601.9100 1520.0600   A 52.06 47.71 -90.0 0 0 554.2000 1468.0000   Z"></path>
  <path fill="#5f6368" d="   M 822.89 1439.25   A 0.29 0.28 0.0 0 1 823.18 1439.53   Q 823.26 1559.84 823.11 1597.48   Q 823.04 1615.97 816.65 1633.90   C 807.70 1658.96 788.08 1675.28 761.78 1680.71   C 741.20 1684.96 718.56 1682.72 700.27 1671.72   Q 676.91 1657.67 665.80 1632.55   A 0.60 0.60 0.0 0 1 666.12 1631.76   L 697.65 1618.74   A 0.88 0.88 0.0 0 1 698.79 1619.19   C 707.44 1638.62 726.47 1652.27 748.43 1647.97   C 762.21 1645.27 774.24 1639.14 780.75 1626.56   C 786.86 1614.75 787.43 1600.87 787.52 1586.79   Q 787.52 1586.18 786.88 1586.18   Q 786.33 1586.18 785.97 1586.57   Q 771.90 1602.10 750.31 1605.10   C 724.17 1608.73 698.00 1597.30 680.70 1577.87   C 652.93 1546.68 651.20 1500.56 676.54 1467.32   C 693.17 1445.52 719.31 1432.11 746.97 1434.45   Q 770.37 1436.43 786.02 1452.95   Q 786.41 1453.37 786.73 1453.38   Q 787.43 1453.41 787.43 1452.71   Q 787.40 1445.08 787.42 1439.83   A 0.59 0.58 -0.0 0 1 788.01 1439.25   L 822.89 1439.25   Z   M 696.37 1520.14   C 696.38 1545.80 713.69 1569.79 740.47 1571.95   C 770.71 1574.39 789.99 1548.21 789.97 1520.10   C 789.96 1491.98 770.67 1465.82 740.42 1468.28   C 713.64 1470.47 696.36 1494.47 696.37 1520.14   Z"></path>
  <path fill="#5f6368" d="   M 1068.75 1498.25   A 0.47 0.47 0.0 0 1 1068.48 1498.82   L 954.66 1545.81   A 0.65 0.64 64.7 0 0 954.34 1546.72   C 962.28 1560.90 973.15 1570.17 989.98 1571.77   C 1010.31 1573.71 1026.50 1565.08 1037.61 1548.65   A 0.48 0.48 0.0 0 1 1038.28 1548.52   L 1066.84 1567.52   A 0.53 0.52 -56.3 0 1 1066.98 1568.26   C 1045.55 1599.16 1008.58 1612.63 972.24 1602.75   C 933.45 1592.21 910.74 1556.32 911.87 1517.00   C 912.70 1488.20 925.31 1461.54 949.68 1446.17   C 967.42 1434.97 989.09 1431.62 1009.67 1436.77   C 1039.99 1444.36 1060.07 1468.74 1068.75 1498.25   Z   M 948.53 1517.15   L 1024.19 1485.92   A 0.64 0.64 0.0 0 0 1024.52 1485.05   C 1017.37 1470.47 999.57 1465.22 984.63 1468.44   Q 974.17 1470.70 965.17 1478.05   Q 948.13 1491.94 947.82 1516.67   A 0.51 0.51 0.0 0 0 948.53 1517.15   Z"></path>
  <path fill="#5f6368" d="   M 1573.64 1444.36   L 1599.86 1444.36   A 0.65 0.64 0.0 0 1 1600.51 1445.00   Q 1600.57 1453.52 1600.53 1464.74   Q 1600.52 1465.19 1600.70 1465.49   A 0.51 0.51 0.0 0 0 1601.57 1465.52   C 1612.55 1449.22 1630.12 1440.38 1649.80 1439.38   Q 1675.77 1438.06 1695.64 1454.07   C 1721.53 1474.93 1730.30 1506.00 1724.94 1538.41   Q 1721.33 1560.21 1706.63 1577.33   Q 1684.00 1603.70 1651.39 1602.67   C 1631.28 1602.04 1614.06 1593.32 1602.38 1577.18   Q 1601.99 1576.65 1601.46 1576.41   A 0.64 0.64 0.0 0 0 1600.56 1577.02   C 1601.03 1585.55 1601.71 1594.80 1601.70 1603.99   Q 1601.67 1645.13 1601.69 1664.84   A 0.39 0.38 0.0 0 1 1601.30 1665.22   L 1573.78 1665.22   A 0.66 0.65 -0.0 0 1 1573.12 1664.57   L 1573.12 1444.87   A 0.52 0.51 0.0 0 1 1573.64 1444.36   Z   M 1600.82 1521.05   C 1601.02 1541.10 1608.15 1558.01 1625.11 1569.11   C 1632.54 1573.97 1641.14 1576.13 1650.04 1576.04   C 1658.94 1575.96 1667.50 1573.62 1674.83 1568.61   C 1691.56 1557.18 1698.35 1540.12 1698.15 1520.07   C 1697.95 1500.02 1690.82 1483.11 1673.86 1472.01   C 1666.44 1467.15 1657.83 1464.99 1648.93 1465.08   C 1640.03 1465.17 1631.47 1467.50 1624.14 1472.51   C 1607.41 1483.94 1600.62 1501.00 1600.82 1521.05   Z"></path>
  <path fill="#5f6368" d="   M 1513.98 1507.14   C 1514.46 1493.84 1508.95 1480.09 1497.36 1472.65   C 1478.70 1460.66 1446.26 1465.82 1437.23 1488.20   A 0.38 0.37 -66.4 0 1 1436.73 1488.40   L 1411.24 1477.37   A 0.39 0.39 0.0 0 1 1411.03 1476.86   Q 1413.62 1470.33 1418.69 1464.22   Q 1434.85 1444.73 1458.69 1441.18   C 1476.73 1438.49 1495.38 1440.37 1511.32 1449.43   C 1533.05 1461.77 1541.89 1482.01 1541.88 1506.25   Q 1541.85 1551.03 1541.87 1597.99   A 0.40 0.40 0.0 0 1 1541.47 1598.39   L 1515.08 1598.39   A 0.57 0.57 0.0 0 1 1514.51 1597.82   L 1514.51 1578.14   A 0.35 0.35 0.0 0 0 1513.89 1577.92   C 1496.71 1599.64 1468.54 1607.51 1442.20 1599.84   Q 1431.66 1596.77 1422.54 1589.21   Q 1404.77 1574.49 1405.45 1549.77   Q 1406.11 1525.89 1424.98 1512.38   Q 1441.75 1500.37 1463.54 1498.75   C 1481.20 1497.43 1498.40 1499.14 1513.58 1507.37   A 0.27 0.27 0.0 0 0 1513.98 1507.14   Z   M 1513.60 1531.23   Q 1509.37 1528.06 1504.02 1526.00   C 1488.83 1520.14 1470.50 1519.32 1455.44 1524.94   Q 1441.03 1530.33 1436.41 1545.13   C 1432.53 1557.53 1439.80 1568.06 1450.92 1572.71   Q 1468.03 1579.86 1485.30 1571.97   C 1498.33 1566.01 1509.25 1554.33 1513.10 1540.34   Q 1514.30 1536.01 1514.04 1532.03   A 1.08 1.06 16.7 0 0 1513.60 1531.23   Z"></path>
  <path fill="#5f6368" d="   M 1869.00 1543.37   L 1869.00 1568.65   Q 1863.32 1585.90 1847.96 1593.99   C 1830.61 1603.13 1809.04 1604.85 1790.36 1600.41   C 1769.44 1595.43 1752.28 1579.21 1743.88 1559.30   A 0.41 0.41 0.0 0 1 1744.10 1558.76   L 1768.72 1548.60   A 0.91 0.91 0.0 0 1 1769.90 1549.09   C 1779.08 1571.16 1798.73 1580.88 1821.44 1576.21   C 1828.68 1574.72 1837.54 1569.94 1840.14 1562.70   C 1842.42 1556.34 1841.68 1549.30 1836.99 1544.09   C 1832.77 1539.40 1825.98 1536.84 1819.68 1535.33   Q 1805.94 1532.06 1790.02 1528.17   Q 1774.83 1524.46 1761.83 1514.11   Q 1749.35 1504.17 1748.45 1488.46   Q 1747.19 1466.32 1765.56 1453.48   Q 1776.01 1446.17 1786.98 1443.23   C 1803.67 1438.76 1822.84 1439.43 1839.10 1446.62   Q 1859.49 1455.65 1867.89 1475.85   A 0.50 0.50 0.0 0 1 1867.62 1476.50   L 1843.59 1486.43   A 0.67 0.66 -22.1 0 1 1842.72 1486.07   C 1837.76 1474.33 1827.97 1468.21 1815.69 1466.78   C 1805.75 1465.62 1796.41 1466.35 1787.71 1470.94   C 1781.00 1474.47 1777.02 1480.10 1777.82 1487.85   C 1778.83 1497.61 1789.02 1502.08 1797.27 1503.98   Q 1820.42 1509.31 1828.51 1511.24   C 1847.21 1515.69 1862.40 1524.42 1869.00 1543.37   Z"></path>
</svg>
