<?xml version="1.0" encoding="UTF-8" standalone="no"?>
<svg xmlns="http://www.w3.org/2000/svg" version="1.1" viewBox="0.00 0.00 1080.00 1080.00">
  <g stroke-width="2.00" fill="none" stroke-linecap="butt">
    <path stroke="#9bc117" vector-effect="non-scaling-stroke" d="   M 540.26 14.95   Q 540.24 143.76 540.26 272.26   Q 540.26 272.71 539.69 273.08"></path>
    <path stroke="#dbe582" vector-effect="non-scaling-stroke" d="   M 539.69 273.08   Q 539.26 273.12 539.35 273.22"></path>
    <path stroke="#d6bb16" vector-effect="non-scaling-stroke" d="   M 539.35 273.22   Q 538.62 272.12 536.40 270.84   Q 423.74 205.77 311.05 140.73   Q 309.57 139.88 308.90 138.73"></path>
    <path stroke="#f9d392" vector-effect="non-scaling-stroke" d="   M 539.35 273.22   L 309.12 406.14"></path>
    <path stroke="#5bb162" vector-effect="non-scaling-stroke" d="   M 771.06 139.23   Q 770.93 139.54 770.83 139.60   Q 655.62 206.12 540.37 272.57   Q 540.19 272.67 540.29 273.13"></path>
    <path stroke="#bed992" vector-effect="non-scaling-stroke" d="   M 540.29 273.13   L 539.69 273.08"></path>
    <path stroke="#f6f6f6" vector-effect="non-scaling-stroke" d="   M 770.72 406.17   Q 770.84 406.46 770.70 406.76   Q 770.60 406.99 770.28 407.18   Q 656.93 472.62 543.58 538.06   Q 541.34 539.35 540.26 540.33"></path>
    <path stroke="#f0f0f0" vector-effect="non-scaling-stroke" d="   M 540.26 540.33   L 311.01 407.98   A 0.81 0.81 0.0 0 0 310.71 407.88   Q 309.09 407.64 308.75 406.56"></path>
    <path stroke="#f1901f" vector-effect="non-scaling-stroke" d="   M 308.76 138.78   L 308.82 405.87   A 0.17 0.16 16.8 0 0 308.90 406.01   Q 309.01 406.07 309.12 406.14"></path>
    <path stroke="#f6ba8a" vector-effect="non-scaling-stroke" d="   M 309.12 406.14   Q 309.09 405.88 308.75 406.56"></path>
    <path stroke="#b45e4f" vector-effect="non-scaling-stroke" d="   M 308.75 406.56   Q 308.52 406.20 308.18 406.37"></path>
    <path stroke="#ea6235" vector-effect="non-scaling-stroke" d="   M 308.18 406.37   L 85.12 277.60"></path>
    <path stroke="#4ac1ad" vector-effect="non-scaling-stroke" d="   M 771.28 139.36   L 771.28 406.49"></path>
    <path stroke="#94cec6" vector-effect="non-scaling-stroke" d="   M 771.28 406.49   Q 771.00 406.33 770.72 406.17"></path>
    <path stroke="#9bd5cd" vector-effect="non-scaling-stroke" d="   M 770.72 406.17   L 540.29 273.13"></path>
    <path stroke="#af94b5" vector-effect="non-scaling-stroke" d="   M 308.75 406.56   L 308.75 673.56"></path>
    <path stroke="#597992" vector-effect="non-scaling-stroke" d="   M 308.75 673.56   Q 308.62 673.67 308.50 673.77"></path>
    <path stroke="#6b8da2" vector-effect="non-scaling-stroke" d="   M 308.50 673.77   L 308.17 673.62"></path>
    <path stroke="#643f86" vector-effect="non-scaling-stroke" d="   M 308.17 673.62   L 77.16 540.25"></path>
    <path stroke="#ecc685" vector-effect="non-scaling-stroke" d="   M 541.24 806.34   Q 540.60 806.58 540.37 807.03"></path>
    <path stroke="#b1cc85" vector-effect="non-scaling-stroke" d="   M 540.37 807.03   L 539.57 806.82"></path>
    <path stroke="#8ec8c0" vector-effect="non-scaling-stroke" d="   M 539.57 806.82   L 308.75 673.56"></path>
    <path stroke="#9e93ba" vector-effect="non-scaling-stroke" d="   M 771.25 406.69   L 771.25 673.27"></path>
    <path stroke="#efb283" vector-effect="non-scaling-stroke" d="   M 771.25 673.27   L 770.95 673.89"></path>
    <path stroke="#f2cc8b" vector-effect="non-scaling-stroke" d="   M 770.95 673.89   L 541.24 806.34"></path>
    <path stroke="#e9e9e9" vector-effect="non-scaling-stroke" d="   M 541.24 806.34   L 540.84 806.38   A 0.54 0.54 0.0 0 1 540.25 805.84   L 540.26 540.33"></path>
    <path stroke="#b0496d" vector-effect="non-scaling-stroke" d="   M 308.18 406.37   L 77.03 539.84"></path>
    <path stroke="#6b8da2" vector-effect="non-scaling-stroke" d="   M 994.89 277.58   Q 883.86 341.66 772.95 405.69   Q 772.55 405.92 772.26 406.63"></path>
    <path stroke="#5487a1" vector-effect="non-scaling-stroke" d="   M 772.26 406.63   Q 771.99 406.21 771.25 406.69"></path>
    <path stroke="#a5e2d6" vector-effect="non-scaling-stroke" d="   M 771.25 406.69   Q 771.22 406.53 771.20 406.38   A 0.09 0.06 -79.1 0 0 771.17 406.31   Q 771.16 406.29 771.15 406.28   A 0.01 0.00 74.2 0 0 771.15 406.29   Q 771.22 406.39 771.28 406.49"></path>
    <path stroke="#4ac1ad" vector-effect="non-scaling-stroke" d="   M 308.50 673.77   L 308.71 939.87   A 1.45 1.35 62.3 0 1 308.51 940.60   L 308.30 940.95"></path>
    <path stroke="#5487a1" vector-effect="non-scaling-stroke" d="   M 308.17 673.62   L 85.13 802.38"></path>
    <path stroke="#5bb162" vector-effect="non-scaling-stroke" d="   M 539.57 806.82   Q 539.39 807.39 539.23 807.48   Q 424.19 873.91 309.16 940.34   Q 308.97 940.44 308.62 941.11"></path>
    <path stroke="#9bc117" vector-effect="non-scaling-stroke" d="   M 540.27 807.23   L 540.25 1065.03"></path>
    <path stroke="#d6bb16" vector-effect="non-scaling-stroke" d="   M 771.06 940.48   L 540.27 807.23"></path>
    <path stroke="#b9af27" vector-effect="non-scaling-stroke" d="   M 540.27 807.23   Q 540.60 806.98 540.37 807.03"></path>
    <path stroke="#d3a20f" vector-effect="non-scaling-stroke" d="   M 771.29 941.19   Q 771.03 940.68 771.06 940.48"></path>
    <path stroke="#f1901f" vector-effect="non-scaling-stroke" d="   M 771.06 940.48   L 771.26 676.38   A 2.50 2.39 -38.0 0 1 771.36 675.69   Q 771.87 673.98 770.95 673.89"></path>
    <path stroke="#99436b" vector-effect="non-scaling-stroke" d="   M 1002.54 540.40   L 772.20 673.38"></path>
    <path stroke="#9e574e" vector-effect="non-scaling-stroke" d="   M 772.20 673.38   Q 771.78 673.66 771.25 673.27"></path>
    <path stroke="#b0496d" vector-effect="non-scaling-stroke" d="   M 1003.00 540.29   L 1002.54 540.40"></path>
    <path stroke="#643f86" vector-effect="non-scaling-stroke" d="   M 1002.54 540.40   Q 1002.83 539.81 1002.34 539.53   Q 887.32 473.03 772.26 406.63"></path>
    <path stroke="#ea6235" vector-effect="non-scaling-stroke" d="   M 994.87 802.37   L 773.32 674.44   A 0.86 0.76 84.2 0 1 773.05 674.19   Q 772.73 673.75 772.20 673.38"></path>
  </g>
  <path fill="#b8cd06" d="   M 540.26 14.95   Q 540.24 143.76 540.26 272.26   Q 540.26 272.71 539.69 273.08   Q 539.26 273.12 539.35 273.22   Q 538.62 272.12 536.40 270.84   Q 423.74 205.77 311.05 140.73   Q 309.57 139.88 308.90 138.73   Q 406.38 82.31 503.98 26.14   Q 515.27 19.64 521.27 17.75   Q 530.55 14.81 540.26 14.95   Z"></path>
  <path fill="#7eb427" d="   M 771.06 139.23   Q 770.93 139.54 770.83 139.60   Q 655.62 206.12 540.37 272.57   Q 540.19 272.67 540.29 273.13   L 539.69 273.08   Q 540.26 272.71 540.26 272.26   Q 540.24 143.76 540.26 14.95   Q 550.12 14.95 559.15 17.86   Q 565.29 19.83 576.36 26.22   Q 673.62 82.40 770.87 138.56   A 0.43 0.42 18.6 0 1 771.08 138.97   Q 771.07 139.10 771.06 139.23   Z"></path>
  <path fill="#ee7617" d="   M 308.76 138.78   L 308.82 405.87   A 0.17 0.16 16.8 0 0 308.90 406.01   Q 309.01 406.07 309.12 406.14   Q 309.09 405.88 308.75 406.56   Q 308.52 406.20 308.18 406.37   L 85.12 277.60   Q 93.24 263.23 106.39 255.63   Q 207.54 197.21 308.76 138.78   Z"></path>
  <path fill="#f4a926" d="   M 308.90 138.73   Q 309.57 139.88 311.05 140.73   Q 423.74 205.77 536.40 270.84   Q 538.62 272.12 539.35 273.22   L 309.12 406.14   Q 309.01 406.07 308.90 406.01   A 0.17 0.16 16.8 0 1 308.82 405.87   L 308.76 138.78   Q 308.83 138.75 308.90 138.73   Z"></path>
  <path fill="#38ad9c" d="   M 771.28 139.36   L 771.28 406.49   Q 771.00 406.33 770.72 406.17   L 540.29 273.13   Q 540.19 272.67 540.37 272.57   Q 655.62 206.12 770.83 139.60   Q 770.93 139.54 771.06 139.23   Q 771.55 139.37 771.28 139.36   Z"></path>
  <path fill="#5bd5bd" d="   M 994.89 277.58   Q 883.86 341.66 772.95 405.69   Q 772.55 405.92 772.26 406.63   Q 771.99 406.21 771.25 406.69   Q 771.22 406.53 771.20 406.38   A 0.09 0.06 -79.1 0 0 771.17 406.31   Q 771.16 406.29 771.15 406.28   A 0.01 0.00 74.2 0 0 771.15 406.29   Q 771.22 406.39 771.28 406.49   L 771.28 139.36   Q 771.39 139.28 771.51 139.19   A 0.31 0.30 40.4 0 1 771.83 139.17   Q 872.77 197.32 973.61 255.64   Q 986.68 263.19 994.89 277.58   Z"></path>
  <path fill="#fdfdfd" d="   M 539.35 273.22   Q 539.26 273.12 539.69 273.08   L 540.29 273.13   L 770.72 406.17   Q 770.84 406.46 770.70 406.76   Q 770.60 406.99 770.28 407.18   Q 656.93 472.62 543.58 538.06   Q 541.34 539.35 540.26 540.33   L 311.01 407.98   A 0.81 0.81 0.0 0 0 310.71 407.88   Q 309.09 407.64 308.75 406.56   Q 309.09 405.88 309.12 406.14   L 539.35 273.22   Z"></path>
  <path fill="#7a4587" d="   M 994.89 277.58   Q 1003.00 291.91 1003.00 305.75   Q 1003.00 423.02 1003.00 540.29   L 1002.54 540.40   Q 1002.83 539.81 1002.34 539.53   Q 887.32 473.03 772.26 406.63   Q 772.55 405.92 772.95 405.69   Q 883.86 341.66 994.89 277.58   Z"></path>
  <path fill="#e54d52" d="   M 85.12 277.60   L 308.18 406.37   L 77.03 539.84   Q 76.93 426.78 77.06 313.65   Q 77.07 300.85 78.37 295.01   Q 80.35 286.06 85.12 277.60   Z"></path>
  <path fill="#efeeef" d="   M 771.28 406.49   Q 771.22 406.39 771.15 406.29   A 0.01 0.00 74.2 0 1 771.15 406.28   Q 771.16 406.29 771.17 406.31   A 0.09 0.06 -79.1 0 1 771.20 406.38   Q 771.22 406.53 771.25 406.69   L 771.25 673.27   L 770.95 673.89   L 541.24 806.34   L 540.84 806.38   A 0.54 0.54 0.0 0 1 540.25 805.84   L 540.26 540.33   Q 541.34 539.35 543.58 538.06   Q 656.93 472.62 770.28 407.18   Q 770.60 406.99 770.70 406.76   Q 770.84 406.46 770.72 406.17   Q 771.00 406.33 771.28 406.49   Z"></path>
  <path fill="#4d3884" d="   M 772.26 406.63   Q 887.32 473.03 1002.34 539.53   Q 1002.83 539.81 1002.54 540.40   L 772.20 673.38   Q 771.78 673.66 771.25 673.27   L 771.25 406.69   Q 771.99 406.21 772.26 406.63   Z"></path>
  <path fill="#7a4587" d="   M 308.75 406.56   L 308.75 673.56   Q 308.62 673.67 308.50 673.77   L 308.17 673.62   L 77.16 540.25   Q 77.14 539.93 77.03 539.84   L 308.18 406.37   Q 308.52 406.20 308.75 406.56   Z"></path>
  <path fill="#e3e3e3" d="   M 540.26 540.33   L 540.25 805.84   A 0.54 0.54 0.0 0 0 540.84 806.38   L 541.24 806.34   Q 540.60 806.58 540.37 807.03   L 539.57 806.82   L 308.75 673.56   L 308.75 406.56   Q 309.09 407.64 310.71 407.88   A 0.81 0.81 0.0 0 1 311.01 407.98   L 540.26 540.33   Z"></path>
  <path fill="#e54d52" d="   M 1003.00 540.29   Q 1003.00 652.68 1003.00 765.06   Q 1003.00 778.43 1001.77 784.34   Q 999.79 793.81 994.87 802.37   L 773.32 674.44   A 0.86 0.76 84.2 0 1 773.05 674.19   Q 772.73 673.75 772.20 673.38   L 1002.54 540.40   L 1003.00 540.29   Z"></path>
  <path fill="#4d3884" d="   M 308.17 673.62   L 85.13 802.38   Q 77.00 788.02 77.00 773.50   Q 77.00 657.50 76.99 541.50   Q 76.99 540.84 77.16 540.25   L 308.17 673.62   Z"></path>
  <path fill="#ee7617" d="   M 771.25 673.27   Q 771.78 673.66 772.20 673.38   Q 772.73 673.75 773.05 674.19   A 0.86 0.76 84.2 0 0 773.32 674.44   L 994.87 802.37   Q 986.72 816.69 974.51 823.76   Q 872.95 882.56 771.29 941.19   Q 771.03 940.68 771.06 940.48   L 771.26 676.38   A 2.50 2.39 -38.0 0 1 771.36 675.69   Q 771.87 673.98 770.95 673.89   L 771.25 673.27   Z"></path>
  <path fill="#5bd5bd" d="   M 308.17 673.62   L 308.50 673.77   L 308.71 939.87   A 1.45 1.35 62.3 0 1 308.51 940.60   L 308.30 940.95   Q 207.33 882.68 106.42 824.33   Q 93.19 816.68 85.13 802.38   L 308.17 673.62   Z"></path>
  <path fill="#38ad9c" d="   M 308.75 673.56   L 539.57 806.82   Q 539.39 807.39 539.23 807.48   Q 424.19 873.91 309.16 940.34   Q 308.97 940.44 308.62 941.11   Q 308.29 940.81 308.30 940.95   L 308.51 940.60   A 1.45 1.35 62.3 0 0 308.71 939.87   L 308.50 673.77   Q 308.62 673.67 308.75 673.56   Z"></path>
  <path fill="#f4a926" d="   M 770.95 673.89   Q 771.87 673.98 771.36 675.69   A 2.50 2.39 -38.0 0 0 771.26 676.38   L 771.06 940.48   L 540.27 807.23   Q 540.60 806.98 540.37 807.03   Q 540.60 806.58 541.24 806.34   L 770.95 673.89   Z"></path>
  <path fill="#7eb427" d="   M 540.37 807.03   Q 540.60 806.98 540.27 807.23   L 540.25 1065.03   Q 530.27 1065.10 521.35 1062.33   Q 515.61 1060.55 504.20 1053.98   Q 406.33 997.67 308.62 941.11   Q 308.97 940.44 309.16 940.34   Q 424.19 873.91 539.23 807.48   Q 539.39 807.39 539.57 806.82   L 540.37 807.03   Z"></path>
  <path fill="#b8cd06" d="   M 540.27 807.23   L 771.06 940.48   Q 771.03 940.68 771.29 941.19   Q 674.37 997.18 577.42 1053.14   Q 565.53 1060.00 559.72 1061.95   Q 550.14 1065.17 540.25 1065.03   L 540.27 807.23   Z"></path>
</svg>
