<?xml version="1.0" encoding="UTF-8" standalone="no"?>
<svg xmlns="http://www.w3.org/2000/svg" version="1.1" viewBox="0.00 0.00 512.00 512.00">
  <g stroke-width="2.00" fill="none" stroke-linecap="butt">
    <path stroke="#30849e" vector-effect="non-scaling-stroke" d="   M 412.12 54.62   Q 401.97 61.46 395.46 71.52   Q 385.60 86.76 382.07 91.03   Q 361.00 116.53 334.81 136.79   C 327.88 142.15 320.17 145.39 311.22 142.97"></path>
    <path stroke="#9ac5d2" vector-effect="non-scaling-stroke" d="   M 311.22 142.97   Q 309.77 134.26 311.99 125.44   Q 315.93 109.76 328.30 100.20   Q 330.43 98.56 327.75 98.34   Q 297.21 95.85 270.83 111.55   Q 229.94 135.89 221.58 183.36"></path>
    <path stroke="#30849e" vector-effect="non-scaling-stroke" d="   M 221.58 183.36   Q 204.21 189.91 183.69 190.29   Q 158.68 190.75 136.00 187.38   Q 127.61 186.14 116.39 183.51   Q 101.85 180.10 91.95 177.12   Q 75.55 172.19 59.21 163.94   Q 46.45 157.49 40.76 154.49   Q 34.22 151.03 25.52 152.75"></path>
    <path stroke="#297992" vector-effect="non-scaling-stroke" d="   M 459.27 104.29   Q 451.84 112.13 438.78 128.57   Q 421.91 149.81 396.30 173.78   Q 381.87 187.28 365.61 198.51   C 355.48 205.51 347.06 199.59 338.93 192.96"></path>
    <path stroke="#95becb" vector-effect="non-scaling-stroke" d="   M 338.93 192.96   Q 333.46 185.89 325.94 174.83   Q 317.64 162.61 312.83 149.90   Q 311.96 147.59 311.22 142.97"></path>
    <path stroke="#93bac7" vector-effect="non-scaling-stroke" d="   M 338.93 192.96   Q 346.36 202.47 353.19 212.30   Q 367.91 233.49 375.45 257.94"></path>
    <path stroke="#90b7c3" vector-effect="non-scaling-stroke" d="   M 375.45 257.94   Q 376.41 261.76 377.29 265.46   Q 383.89 293.37 377.82 321.15"></path>
    <path stroke="#8db2be" vector-effect="non-scaling-stroke" d="   M 377.82 321.15   Q 369.21 354.53 343.22 377.23   Q 308.34 407.69 262.72 413.02   C 211.94 418.95 162.28 397.61 131.02 357.63"></path>
    <path stroke="#90b7c3" vector-effect="non-scaling-stroke" d="   M 131.02 357.63   Q 130.13 356.67 130.22 355.77   A 1.44 1.43 17.0 0 1 132.34 354.65   Q 150.08 364.42 170.51 363.45   Q 196.28 362.24 215.22 344.96   Q 231.53 330.09 236.92 308.50"></path>
    <path stroke="#93bac7" vector-effect="non-scaling-stroke" d="   M 236.92 308.50   Q 240.15 294.03 237.90 279.15   C 236.00 266.57 232.06 254.51 228.20 242.40"></path>
    <path stroke="#95becb" vector-effect="non-scaling-stroke" d="   M 228.20 242.40   Q 224.74 231.75 222.70 222.27   Q 218.56 203.06 221.58 183.36"></path>
    <path stroke="#24728a" vector-effect="non-scaling-stroke" d="   M 491.97 167.52   Q 482.40 172.71 475.42 180.19   Q 459.24 197.54 454.60 202.25   Q 434.04 223.12 410.63 240.72   Q 403.32 246.22 395.56 251.09   Q 386.39 256.84 375.45 257.94"></path>
    <path stroke="#297992" vector-effect="non-scaling-stroke" d="   M 228.20 242.40   Q 219.39 246.61 209.99 248.33   Q 207.21 248.84 191.07 250.35   C 177.20 251.64 164.45 252.91 152.49 251.29   Q 131.25 248.42 102.76 242.27   C 87.05 238.88 70.04 232.84 57.55 228.84   C 45.67 225.03 36.49 219.66 26.18 214.39   Q 17.26 209.83 8.61 214.35"></path>
    <path stroke="#237189" vector-effect="non-scaling-stroke" d="   M 8.60 213.96   L 8.65 213.29"></path>
    <path stroke="#237189" vector-effect="non-scaling-stroke" d="   M 9.56 207.96   Q 9.72 207.49 9.64 207.00"></path>
    <path stroke="#1e6a81" vector-effect="non-scaling-stroke" d="   M 505.61 236.04   C 495.30 246.99 484.82 258.38 473.64 268.04   Q 436.61 300.07 393.70 323.83   Q 390.60 325.55 386.58 326.67   Q 380.14 328.46 377.82 321.15"></path>
    <path stroke="#24728a" vector-effect="non-scaling-stroke" d="   M 236.92 308.50   Q 225.31 316.05 210.92 317.40   Q 186.48 319.69 167.15 318.96   Q 133.44 317.67 100.62 312.02   C 85.81 309.47 71.87 305.69 59.16 301.76   Q 43.96 297.07 31.66 290.48   C 24.26 286.51 16.90 284.10 8.42 284.30"></path>
    <path stroke="#216d85" vector-effect="non-scaling-stroke" d="   M 6.63 267.97   L 6.57 266.23"></path>
    <path stroke="#216d85" vector-effect="non-scaling-stroke" d="   M 6.57 232.79   Q 6.77 232.17 6.65 231.45"></path>
    <path stroke="#216d85" vector-effect="non-scaling-stroke" d="   M 7.58 221.96   L 7.67 220.54"></path>
    <path stroke="#1e6a81" vector-effect="non-scaling-stroke" d="   M 36.94 369.91   Q 40.31 365.31 45.63 365.65   Q 49.98 365.93 52.84 366.70   Q 65.99 370.25 69.77 371.04   Q 99.05 377.16 107.77 378.52   Q 121.31 380.62 129.71 381.08   C 134.72 381.36 142.34 380.98 140.43 373.66   Q 139.92 371.69 139.12 370.22   Q 135.98 364.44 131.02 357.63"></path>
  </g>
  <path fill="#348aa5" d="   M 261.87 0.00   Q 346.25 2.72 412.12 54.62   Q 401.97 61.46 395.46 71.52   Q 385.60 86.76 382.07 91.03   Q 361.00 116.53 334.81 136.79   C 327.88 142.15 320.17 145.39 311.22 142.97   Q 309.77 134.26 311.99 125.44   Q 315.93 109.76 328.30 100.20   Q 330.43 98.56 327.75 98.34   Q 297.21 95.85 270.83 111.55   Q 229.94 135.89 221.58 183.36   Q 204.21 189.91 183.69 190.29   Q 158.68 190.75 136.00 187.38   Q 127.61 186.14 116.39 183.51   Q 101.85 180.10 91.95 177.12   Q 75.55 172.19 59.21 163.94   Q 46.45 157.49 40.76 154.49   Q 34.22 151.03 25.52 152.75   C 50.02 95.09 94.86 48.95 151.71 22.69   Q 197.83 1.39 250.20 0.00   L 261.87 0.00   Z"></path>
  <path fill="#2b7d96" d="   M 412.12 54.62   Q 439.16 76.31 459.27 104.29   Q 451.84 112.13 438.78 128.57   Q 421.91 149.81 396.30 173.78   Q 381.87 187.28 365.61 198.51   C 355.48 205.51 347.06 199.59 338.93 192.96   Q 333.46 185.89 325.94 174.83   Q 317.64 162.61 312.83 149.90   Q 311.96 147.59 311.22 142.97   C 320.17 145.39 327.88 142.15 334.81 136.79   Q 361.00 116.53 382.07 91.03   Q 385.60 86.76 395.46 71.52   Q 401.97 61.46 412.12 54.62   Z"></path>
  <path fill="#ffffff" d="   M 311.22 142.97   Q 311.96 147.59 312.83 149.90   Q 317.64 162.61 325.94 174.83   Q 333.46 185.89 338.93 192.96   Q 346.36 202.47 353.19 212.30   Q 367.91 233.49 375.45 257.94   Q 376.41 261.76 377.29 265.46   Q 383.89 293.37 377.82 321.15   Q 369.21 354.53 343.22 377.23   Q 308.34 407.69 262.72 413.02   C 211.94 418.95 162.28 397.61 131.02 357.63   Q 130.13 356.67 130.22 355.77   A 1.44 1.43 17.0 0 1 132.34 354.65   Q 150.08 364.42 170.51 363.45   Q 196.28 362.24 215.22 344.96   Q 231.53 330.09 236.92 308.50   Q 240.15 294.03 237.90 279.15   C 236.00 266.57 232.06 254.51 228.20 242.40   Q 224.74 231.75 222.70 222.27   Q 218.56 203.06 221.58 183.36   Q 229.94 135.89 270.83 111.55   Q 297.21 95.85 327.75 98.34   Q 330.43 98.56 328.30 100.20   Q 315.93 109.76 311.99 125.44   Q 309.77 134.26 311.22 142.97   Z"></path>
  <path fill="#26758e" d="   M 459.27 104.29   Q 461.07 106.77 462.66 109.10   Q 480.94 135.88 491.81 166.45   Q 491.98 166.93 491.97 167.52   Q 482.40 172.71 475.42 180.19   Q 459.24 197.54 454.60 202.25   Q 434.04 223.12 410.63 240.72   Q 403.32 246.22 395.56 251.09   Q 386.39 256.84 375.45 257.94   Q 367.91 233.49 353.19 212.30   Q 346.36 202.47 338.93 192.96   C 347.06 199.59 355.48 205.51 365.61 198.51   Q 381.87 187.28 396.30 173.78   Q 421.91 149.81 438.78 128.57   Q 451.84 112.13 459.27 104.29   Z"></path>
  <path fill="#2b7d96" d="   M 221.58 183.36   Q 218.56 203.06 222.70 222.27   Q 224.74 231.75 228.20 242.40   Q 219.39 246.61 209.99 248.33   Q 207.21 248.84 191.07 250.35   C 177.20 251.64 164.45 252.91 152.49 251.29   Q 131.25 248.42 102.76 242.27   C 87.05 238.88 70.04 232.84 57.55 228.84   C 45.67 225.03 36.49 219.66 26.18 214.39   Q 17.26 209.83 8.61 214.35   Q 8.60 214.15 8.60 213.96   L 8.65 213.29   L 9.56 207.96   Q 9.72 207.49 9.64 207.00   Q 14.49 178.92 25.52 152.75   Q 34.22 151.03 40.76 154.49   Q 46.45 157.49 59.21 163.94   Q 75.55 172.19 91.95 177.12   Q 101.85 180.10 116.39 183.51   Q 127.61 186.14 136.00 187.38   Q 158.68 190.75 183.69 190.29   Q 204.21 189.91 221.58 183.36   Z"></path>
  <path fill="#216e86" d="   M 491.97 167.52   Q 492.18 167.66 492.28 167.96   Q 503.78 201.00 505.61 236.04   C 495.30 246.99 484.82 258.38 473.64 268.04   Q 436.61 300.07 393.70 323.83   Q 390.60 325.55 386.58 326.67   Q 380.14 328.46 377.82 321.15   Q 383.89 293.37 377.29 265.46   Q 376.41 261.76 375.45 257.94   Q 386.39 256.84 395.56 251.09   Q 403.32 246.22 410.63 240.72   Q 434.04 223.12 454.60 202.25   Q 459.24 197.54 475.42 180.19   Q 482.40 172.71 491.97 167.52   Z"></path>
  <path fill="#26758e" d="   M 228.20 242.40   C 232.06 254.51 236.00 266.57 237.90 279.15   Q 240.15 294.03 236.92 308.50   Q 225.31 316.05 210.92 317.40   Q 186.48 319.69 167.15 318.96   Q 133.44 317.67 100.62 312.02   C 85.81 309.47 71.87 305.69 59.16 301.76   Q 43.96 297.07 31.66 290.48   C 24.26 286.51 16.90 284.10 8.42 284.30   L 6.63 267.97   L 6.57 266.23   Q 5.56 249.51 6.57 232.79   Q 6.77 232.17 6.65 231.45   L 7.58 221.96   L 7.67 220.54   L 8.61 214.35   Q 17.26 209.83 26.18 214.39   C 36.49 219.66 45.67 225.03 57.55 228.84   C 70.04 232.84 87.05 238.88 102.76 242.27   Q 131.25 248.42 152.49 251.29   C 164.45 252.91 177.20 251.64 191.07 250.35   Q 207.21 248.84 209.99 248.33   Q 219.39 246.61 228.20 242.40   Z"></path>
  <path fill="#1b657c" d="   M 9.64 207.00   Q 9.72 207.49 9.56 207.96   L 9.64 207.00   Z"></path>
  <path fill="#1b657c" d="   M 8.65 213.29   L 8.60 213.96   L 8.65 213.29   Z"></path>
  <path fill="#1b657c" d="   M 7.67 220.54   L 7.58 221.96   L 7.67 220.54   Z"></path>
  <path fill="#1b657c" d="   M 6.65 231.45   Q 6.77 232.17 6.57 232.79   L 6.65 231.45   Z"></path>
  <path fill="#1b657c" d="   M 412.35 512.00   L 410.14 512.00   L 351.93 480.66   Q 351.50 480.43 351.04 480.60   Q 337.41 485.80 332.52 487.31   Q 259.10 510.08 186.01 489.23   C 152.07 479.55 120.25 462.10 93.50 439.25   Q 59.04 409.83 36.94 369.91   Q 40.31 365.31 45.63 365.65   Q 49.98 365.93 52.84 366.70   Q 65.99 370.25 69.77 371.04   Q 99.05 377.16 107.77 378.52   Q 121.31 380.62 129.71 381.08   C 134.72 381.36 142.34 380.98 140.43 373.66   Q 139.92 371.69 139.12 370.22   Q 135.98 364.44 131.02 357.63   C 162.28 397.61 211.94 418.95 262.72 413.02   Q 308.34 407.69 343.22 377.23   Q 369.21 354.53 377.82 321.15   Q 380.14 328.46 386.58 326.67   Q 390.60 325.55 393.70 323.83   Q 436.61 300.07 473.64 268.04   C 484.82 258.38 495.30 246.99 505.61 236.04   Q 508.86 299.53 482.23 355.97   Q 459.09 404.99 416.88 440.65   Q 416.50 440.97 416.50 441.47   Q 416.46 473.27 416.46 504.99   Q 416.46 510.46 412.35 512.00   Z"></path>
  <path fill="#1b657c" d="   M 6.63 267.97   L 6.57 266.23   L 6.63 267.97   Z"></path>
  <path fill="#216e86" d="   M 236.92 308.50   Q 231.53 330.09 215.22 344.96   Q 196.28 362.24 170.51 363.45   Q 150.08 364.42 132.34 354.65   A 1.44 1.43 17.0 0 0 130.22 355.77   Q 130.13 356.67 131.02 357.63   Q 135.98 364.44 139.12 370.22   Q 139.92 371.69 140.43 373.66   C 142.34 380.98 134.72 381.36 129.71 381.08   Q 121.31 380.62 107.77 378.52   Q 99.05 377.16 69.77 371.04   Q 65.99 370.25 52.84 366.70   Q 49.98 365.93 45.63 365.65   Q 40.31 365.31 36.94 369.91   Q 14.76 329.66 8.42 284.30   C 16.90 284.10 24.26 286.51 31.66 290.48   Q 43.96 297.07 59.16 301.76   C 71.87 305.69 85.81 309.47 100.62 312.02   Q 133.44 317.67 167.15 318.96   Q 186.48 319.69 210.92 317.40   Q 225.31 316.05 236.92 308.50   Z"></path>
</svg>
