<svg width="64" height="64" viewBox="0 0 64 64" fill="none" xmlns="http://www.w3.org/2000/svg">
  <rect width="64" height="64" rx="18" fill="#33CCFF"/>
  <path d="M49 31.5C49 21.835 41.165 14 31.5 14S14 21.835 14 31.5c0 2.5.53 4.875 1.483 7.023L10 45.5l9.043-1.825A17.42 17.42 0 0 0 31.5 49C41.165 49 49 41.165 49 31.5Z" fill="white"/>
  <path d="M23.5 30.5h.01M39.5 30.5h.01M25 38c3.7 3.1 9.3 3.1 13 0" stroke="#172554" stroke-width="4" stroke-linecap="round"/>
  <circle cx="23.5" cy="30.5" r="2" fill="#172554"/>
  <circle cx="39.5" cy="30.5" r="2" fill="#172554"/>
  <circle cx="21" cy="51" r="4" fill="#172554"/>
  <circle cx="43" cy="51" r="4" fill="#172554"/>
</svg>
